<svg width="191" height="98" viewBox="0 0 191 98" fill="none" xmlns="http://www.w3.org/2000/svg">
<path fill-rule="evenodd" clip-rule="evenodd" d="M95.6561 95.1936C94.7006 95.2544 93.7373 95.2853 92.7667 95.2853C92.3344 95.2853 91.9037 95.2791 91.4743 95.2671C89.8734 94.8206 88.0435 93.8452 86.0765 92.2508C83.2838 89.9873 80.4182 86.6355 77.8346 82.3909C77.0151 81.0444 76.2283 79.6151 75.484 78.1106C80.7978 78.6611 86.2958 78.884 93.1964 78.8607C100.314 78.8365 106.015 78.482 111.547 77.8041C110.758 79.421 109.921 80.9534 109.046 82.3909C106.462 86.6355 103.597 89.9873 100.804 92.2508C98.9385 93.7626 97.1967 94.7179 95.6561 95.1936ZM93.9245 97.9862C113.883 97.5084 130.84 84.707 137.712 66.7812H134.812C134.136 68.4309 133.37 70.032 132.518 71.5783L132.514 71.5582C125.998 72.9196 120.691 73.9954 115.543 74.7851C116.561 72.2607 117.459 69.5835 118.201 66.7812H115.688C114.872 69.7478 113.876 72.5621 112.746 75.1874C106.813 75.9812 100.837 76.3914 93.1881 76.4175C85.7486 76.4427 79.9775 76.1805 74.2788 75.5208C73.0895 72.801 72.0432 69.8737 71.192 66.7812H68.6795C69.4588 69.725 70.41 72.5306 71.4924 75.1663C65.9901 74.404 60.314 73.2568 53.0421 71.6266C52.1801 70.0654 51.4043 68.448 50.7217 66.7812H47.821C54.826 85.0526 72.3083 98 92.7667 98C92.9254 98 93.0841 97.9992 93.2425 97.9976C93.3085 97.9992 93.3745 98 93.4402 98C93.6005 98 93.7621 97.9954 93.9245 97.9862ZM92.7667 0C113.828 0 131.736 13.7217 138.304 32.8476H135.443C134.674 30.7473 133.759 28.7192 132.711 26.7758C127.079 27.952 122.324 28.9179 117.767 29.6693C118.068 30.7104 118.348 31.7702 118.605 32.8476H116.109C115.874 31.8999 115.621 30.9672 115.351 30.0499C108.563 31.0668 101.95 31.5964 93.1964 31.626C84.5254 31.6554 78.0692 31.2959 71.4105 30.386C71.1788 31.1947 70.9601 32.0156 70.7553 32.8476H68.2604C68.4858 31.8953 68.7291 30.9566 68.989 30.0325C64.1435 29.2816 59.0428 28.2362 52.7897 26.8367C51.7553 28.7615 50.8513 30.769 50.09 32.8476H47.2292C53.7983 13.7217 71.7054 0 92.7667 0ZM85.1819 94.6455C80.6588 91.2054 76.1205 85.3007 72.6348 77.7821C67.1678 77.0888 61.6641 76.0293 54.7761 74.5139C61.6 84.9948 72.5068 92.4835 85.1819 94.6455ZM54.0623 24.6183C60.0796 25.9573 65.0065 26.955 69.6999 27.6705C73.2918 16.4699 79.3162 7.69113 85.399 3.31799C72.179 5.506 60.8619 13.4848 54.0623 24.6183ZM93.2543 2.71729C91.1696 2.77527 88.6342 3.80541 85.8844 6.00821C83.0799 8.25478 80.2318 11.5836 77.6767 15.8072C75.5365 19.3454 73.6301 23.4656 72.1375 28.019C78.5576 28.8755 84.8169 29.2111 93.1881 29.1828C101.637 29.1543 108.045 28.6564 114.608 27.6906C113.123 23.2692 111.247 19.2631 109.152 15.8104C106.588 11.5855 103.734 8.25467 100.933 6.00659C98.286 3.88099 95.8527 2.85166 93.8491 2.72752C93.6511 2.72283 93.4529 2.7194 93.2543 2.71729ZM102.138 94.3031C106.587 90.7637 111.016 84.8672 114.411 77.423C119.515 76.6914 124.657 75.6831 130.829 74.4037C124.331 84.4456 114.093 91.7589 102.138 94.3031ZM131.428 24.5483C124.922 13.9374 114.308 6.20386 101.857 3.63786C107.71 8.06176 113.499 16.5488 117.039 27.3132C121.436 26.597 126.019 25.6753 131.428 24.5483ZM20.2791 43.1252L21.5082 37.4743C20.4968 37.1645 19.4598 36.9324 18.3971 36.7777C17.3473 36.6099 16.2335 36.526 15.0557 36.526C13.5066 36.526 12.0471 36.7324 10.6773 37.1453C9.32021 37.5582 8.05914 38.1904 6.89413 39.0417C5.7291 39.8806 4.67931 40.9578 3.74473 42.2738C2.81015 43.5896 2.03559 45.1378 1.42107 46.9184C0.883371 48.4796 0.486494 50.1244 0.230444 51.8534C0.0768147 52.9759 0 53.9627 0 54.8143C0 57.6397 0.729739 59.8074 2.18922 61.3168C3.6487 62.8134 5.7419 63.5618 8.46884 63.5618C9.87709 63.5618 11.1958 63.4779 12.4248 63.3102C13.6538 63.1554 14.8893 62.8973 16.1311 62.5359L17.3601 56.827H14.8444C14.3708 57.9107 13.8843 58.7623 13.385 59.3815C12.8985 60.0007 12.3096 60.4782 11.6182 60.8138C10.9397 61.1363 10.1203 61.2975 9.16017 61.2975C8.28959 61.2975 7.60467 61.1039 7.10538 60.7168C6.61889 60.3297 6.27322 59.7814 6.06836 59.072C5.87634 58.3624 5.78031 57.4657 5.78031 56.3818C5.78031 55.5174 5.84432 54.5303 5.97235 53.4209C6.11318 52.3114 6.34363 51.0922 6.66368 49.7634C6.99655 48.4343 7.35501 47.2474 7.73909 46.2022C8.22559 44.9122 8.76968 43.7767 9.37142 42.7961C9.98592 41.8028 10.6325 40.9901 11.311 40.3578C11.8999 39.816 12.4952 39.4223 13.0969 39.1772C13.6986 38.9193 14.2812 38.7904 14.8444 38.7904C15.5486 38.7904 16.1055 38.9386 16.5152 39.2353C16.9249 39.5192 17.2257 39.9514 17.4178 40.5321C17.6098 41.1125 17.725 41.9771 17.7634 43.1252H20.2791ZM23.3517 61.2587C24.8368 62.7941 27.0388 63.5618 29.9578 63.5618C31.4555 63.5618 32.8576 63.381 34.1633 63.02C35.4819 62.6456 36.7111 62.0652 37.8506 61.2782C38.99 60.4782 39.9948 59.4846 40.8654 58.2978C41.7361 57.1109 42.4658 55.756 43.0547 54.2336C43.6565 52.6985 44.0853 51.1761 44.3412 49.6665C44.6101 48.1441 44.7448 46.7636 44.7448 45.5249C44.7448 42.5963 43.9891 40.3643 42.4785 38.8289C40.9807 37.2938 38.7724 36.526 35.8534 36.526C34.2915 36.526 32.8 36.7581 31.3788 37.2226C29.9578 37.6743 28.6648 38.3644 27.4997 39.2934C26.3475 40.2093 25.3425 41.3191 24.4847 42.6221C23.6269 43.9252 22.9548 45.3121 22.4683 46.7829C21.9818 48.2407 21.6362 49.6276 21.4313 50.9437C21.2265 52.2598 21.1241 53.4274 21.1241 54.4465C21.1241 57.4399 21.8666 59.7105 23.3517 61.2587ZM27.6727 60.1169C27.1603 59.3171 26.9044 58.0269 26.9044 56.2463C26.9044 54.7755 27.1347 52.9113 27.5956 50.6535C28.0565 48.3827 28.7095 46.3377 29.5545 44.5186C30.4122 42.6995 31.3661 41.2933 32.4159 40.2997C33.4656 39.2934 34.5475 38.7904 35.6613 38.7904C36.839 38.7904 37.6841 39.1902 38.1962 39.9902C38.7083 40.79 38.9644 42.0545 38.9644 43.7832C38.9644 44.7379 38.8874 45.7057 38.7338 46.6863C38.465 48.4538 38.1515 50.002 37.7929 51.3308C37.3576 52.9694 36.807 54.4788 36.1414 55.8595C35.4757 57.2399 34.746 58.3751 33.9521 59.2653C33.3121 59.9879 32.64 60.5233 31.9358 60.8716C31.3726 61.1555 30.7834 61.2975 30.169 61.2975C29.0169 61.2975 28.1847 60.9039 27.6727 60.1169ZM49.1822 36.8355H56.4797L60.186 47.7892C61.1973 50.7697 61.9976 53.4016 62.5865 55.6852H62.8362C63.2074 53.4532 63.6939 50.9825 64.2954 48.273L65.6399 42.0607C65.8063 41.2868 65.8893 40.5321 65.8893 39.7967C65.8893 39.2548 65.7613 38.8612 65.5054 38.6161C65.2622 38.3582 64.8589 38.1904 64.2954 38.113L64.5645 36.8355H71.6314L71.3625 38.113C70.8248 38.2678 70.4087 38.4806 70.1142 38.7515C69.8327 39.0225 69.5892 39.4096 69.3845 39.9126C69.1797 40.4029 68.9748 41.119 68.77 42.0607L64.1418 63.2521H59.7634L55.1546 49.7245C54.796 48.6666 54.476 47.6796 54.1943 46.7636C53.9128 45.8347 53.5733 44.6606 53.1765 43.2413L52.8886 43.2221C52.7862 44.0864 52.5877 45.2798 52.2933 46.8022C52.0115 48.3118 51.6723 49.9504 51.2756 51.7179L49.8928 58.0269C49.8161 58.3624 49.7646 58.6268 49.739 58.8204C49.7134 59.0139 49.6878 59.2267 49.6622 59.4588C49.6496 59.6782 49.6431 59.9556 49.6431 60.2912C49.6431 60.833 49.7646 61.2329 50.0079 61.4911C50.264 61.7362 50.6738 61.8974 51.237 61.9748L50.9682 63.2521H43.9013L44.1702 61.9748C44.7078 61.8201 45.1173 61.607 45.3991 61.3361C45.6935 61.0651 45.9432 60.6845 46.1479 60.1943C46.3529 59.6912 46.5577 58.9686 46.7627 58.0269L50.2576 42.0607C50.424 41.2995 50.5073 40.5449 50.5073 39.7967C50.5073 39.2548 50.3793 38.8612 50.1231 38.6161C49.8799 38.3582 49.4766 38.1904 48.9134 38.113L49.1822 36.8355ZM73.9165 59.4977C73.6094 58.8396 73.4365 57.943 73.3982 56.8077H70.8825L69.6918 62.3812C70.8825 62.7553 72.1179 63.0458 73.3982 63.2521C74.6912 63.4584 75.9266 63.5618 77.1043 63.5618C78.9353 63.5618 80.4395 63.381 81.6172 63.02C82.5775 62.736 83.512 62.2715 84.4209 61.6265C85.4453 60.8911 86.258 59.9687 86.8598 58.8589C87.4872 57.672 87.8008 56.4206 87.8008 55.1045C87.8008 54.124 87.6472 53.2531 87.3399 52.4919C87.0328 51.7307 86.5719 51.0148 85.9574 50.3438C85.3427 49.6599 84.4659 48.8925 83.3264 48.0409C82.0716 47.1247 81.1307 46.2669 80.5033 45.4668C79.8889 44.6541 79.5818 43.7962 79.5818 42.8931C79.5818 41.6158 79.9721 40.616 80.753 39.8933C81.534 39.1579 82.5967 38.7904 83.9408 38.7904C85.17 38.7904 86.0598 39.1256 86.6101 39.7967C87.1607 40.4675 87.4425 41.5254 87.4552 42.9704H89.9709L91.1424 37.455C90.0029 37.1064 88.8955 36.8678 87.8202 36.7389C86.7445 36.5969 85.5668 36.526 84.2865 36.526C82.5581 36.526 81.0475 36.7196 79.7544 37.1064C78.4614 37.4935 77.3861 38.0549 76.5284 38.7904C75.6833 39.5127 75.0433 40.3643 74.608 41.3449C74.1727 42.3254 73.955 43.3252 73.955 44.3446C73.955 45.5445 74.2624 46.6925 74.8768 47.7892C75.5042 48.886 76.4257 49.8858 77.642 50.789C78.9479 51.7565 79.8633 52.5114 80.3883 53.0533C80.926 53.5951 81.3228 54.1563 81.5789 54.7369C81.8349 55.3046 81.9628 55.9626 81.9628 56.7108C81.9628 58.1558 81.5596 59.2848 80.753 60.0976C79.9465 60.8974 78.8456 61.2975 77.4499 61.2975C76.5284 61.2975 75.7857 61.162 75.2224 60.8911C74.6592 60.6072 74.2239 60.1427 73.9165 59.4977ZM116.643 36.8355L115.126 43.8413H112.668C112.655 42.4093 112.572 41.4092 112.418 40.8416C112.265 40.2612 112.015 39.8287 111.67 39.545C111.337 39.2483 110.863 39.0998 110.249 39.0998H108.539L104.411 58.0269C104.334 58.3751 104.282 58.6461 104.257 58.8396C104.231 59.0202 104.206 59.2267 104.18 59.4588C104.167 59.6782 104.161 59.9556 104.161 60.2912C104.161 60.8846 104.308 61.304 104.603 61.5492C104.91 61.7943 105.384 61.936 106.024 61.9748L105.755 63.2521H95.5575L95.8263 61.9748C96.3899 61.8974 96.8379 61.7297 97.1708 61.4715C97.5035 61.2136 97.7788 60.833 97.9965 60.3297C98.227 59.8137 98.4574 59.0462 98.6877 58.0269L102.817 39.0998H101.28C100.781 39.0998 100.371 39.1452 100.051 39.2353C99.7439 39.3257 99.4751 39.4546 99.2448 39.6224C99.0142 39.7771 98.7647 40.003 98.4959 40.2997C98.227 40.5837 97.9261 40.977 97.5932 41.4803C97.2732 41.9706 96.9276 42.6221 96.5561 43.4349H94.0406L95.4807 36.8355H116.643ZM133.255 52.9952C132.909 52.4018 132.352 51.7888 131.584 51.1565L131.564 50.9825C133.895 50.1698 135.629 49.0858 136.769 47.7312C137.908 46.3765 138.478 44.7252 138.478 42.7769C138.478 42.0545 138.382 41.403 138.19 40.8223C138.011 40.2416 137.742 39.7321 137.383 39.2934C137.038 38.8547 136.615 38.4806 136.116 38.1709C135.629 37.8484 135.04 37.5839 134.349 37.3776C133.67 37.1583 132.954 37.0163 132.198 36.9517C131.456 36.8743 130.438 36.8355 129.145 36.8355H119.562L119.293 38.113C119.857 38.1904 120.26 38.3582 120.503 38.6161C120.759 38.8612 120.887 39.2548 120.887 39.7967C120.887 40.5449 120.804 41.2995 120.638 42.0607L117.142 58.0269C116.938 58.9686 116.733 59.6912 116.528 60.1943C116.323 60.6845 116.074 61.0651 115.779 61.3361C115.497 61.607 115.088 61.8201 114.55 61.9748L114.281 63.2521H124.21L124.478 61.9748C123.838 61.936 123.365 61.7943 123.057 61.5492C122.763 61.304 122.616 60.8846 122.616 60.2912C122.616 59.8267 122.635 59.4396 122.673 59.1298C122.712 58.8204 122.776 58.4525 122.865 58.0269L124.248 51.8727H125.439C126.066 51.8727 126.565 51.9954 126.937 52.2405C127.308 52.4856 127.615 52.8855 127.858 53.4401C128.102 53.995 128.313 54.7562 128.492 55.724L129.106 58.9365C129.427 60.6006 129.798 62.0394 130.22 63.2521H137.076L137.345 61.9748C136.794 61.8459 136.359 61.6523 136.039 61.3941C135.732 61.1232 135.482 60.7814 135.29 60.3685C135.111 59.9429 134.919 59.2395 134.714 58.259L134.157 55.5497C133.914 54.4272 133.613 53.5756 133.255 52.9952ZM129.087 49.1634C128.268 49.4601 127.224 49.6084 125.957 49.6084H124.747L126.994 39.1386C127.327 39.1129 127.98 39.0998 128.953 39.0998C130.31 39.0998 131.302 39.4096 131.929 40.0288C132.557 40.648 132.87 41.5835 132.87 42.835C132.87 43.8671 132.723 44.796 132.429 45.6218C132.134 46.4474 131.712 47.17 131.161 47.7892C130.611 48.4085 129.919 48.8664 129.087 49.1634ZM153.418 55.066H145.91L145.641 55.5497C145.346 56.0658 145.09 56.5368 144.873 56.9624C144.668 57.3753 144.482 57.801 144.316 58.2397C144.149 58.6653 144.028 59.0525 143.951 59.4008C143.887 59.7363 143.855 60.0588 143.855 60.3685C143.855 61.2975 144.399 61.8328 145.487 61.9748L145.199 63.2521H137.095L137.383 61.9748C137.831 61.8717 138.228 61.6974 138.574 61.4522C138.907 61.2071 139.227 60.8781 139.534 60.4652C139.841 60.0395 140.277 59.3171 140.84 58.2978L152.765 36.7H158.296L159.122 57.3881C159.147 58.1754 159.192 58.8011 159.256 59.2653C159.32 59.717 159.404 60.1041 159.506 60.4266C159.608 60.7491 159.73 61.0201 159.871 61.2394C160.024 61.4588 160.217 61.6265 160.447 61.7424C160.677 61.8586 160.933 61.936 161.215 61.9748L160.927 63.2521H150.999L151.287 61.9748C151.85 61.936 152.292 61.7943 152.612 61.5492C152.945 61.291 153.175 60.9492 153.303 60.5233C153.431 60.0846 153.495 59.4784 153.495 58.7042C153.495 58.1493 153.482 57.5689 153.457 56.9624L153.418 55.066ZM147.1 52.8016H153.361L153.284 48.1571C153.258 46.5055 153.246 45.1378 153.246 44.0541C153.246 43.2286 153.252 42.3835 153.265 41.5189H153.034L147.1 52.8016ZM175.848 36.8355H168.551L168.282 38.113C168.845 38.1904 169.249 38.3582 169.492 38.6161C169.748 38.8612 169.876 39.2548 169.876 39.7967C169.876 40.5449 169.793 41.2995 169.626 42.0607L166.131 58.0269C165.926 58.9686 165.722 59.6912 165.517 60.1943C165.312 60.6845 165.062 61.0651 164.768 61.3361C164.486 61.607 164.076 61.8201 163.539 61.9748L163.27 63.2521H170.337L170.606 61.9748C170.042 61.8974 169.633 61.7362 169.377 61.4911C169.134 61.2329 169.012 60.833 169.012 60.2912C169.012 59.9556 169.018 59.6782 169.031 59.4588C169.056 59.2267 169.082 59.0139 169.108 58.8204C169.133 58.6268 169.185 58.3624 169.261 58.0269L170.644 51.7179C171.041 49.9504 171.38 48.3118 171.662 46.8022C171.956 45.2798 172.155 44.0864 172.257 43.2221L172.545 43.2413C172.942 44.6606 173.281 45.8347 173.563 46.7636C173.845 47.6796 174.165 48.6666 174.523 49.7245L179.132 63.2521H183.51L188.139 42.0607C188.343 41.119 188.548 40.4029 188.753 39.9126C188.958 39.4096 189.201 39.0225 189.483 38.7515C189.777 38.4806 190.193 38.2678 190.731 38.113L191 36.8355H183.933L183.664 38.113C184.228 38.1904 184.631 38.3582 184.874 38.6161C185.13 38.8612 185.258 39.2548 185.258 39.7967C185.258 40.5321 185.175 41.2868 185.008 42.0607L183.664 48.273C183.062 50.9825 182.576 53.4532 182.205 55.6852H181.955C181.366 53.4016 180.566 50.7697 179.555 47.7892L175.848 36.8355Z" fill="#AA2423"/>
</svg>
