<svg width="224" height="110" viewBox="0 0 224 110" fill="none" xmlns="http://www.w3.org/2000/svg">
<path d="M19.3884 18.2836C19.3884 19.0268 19.2415 19.7701 18.9477 20.3647C18.654 20.9592 18.3602 21.4052 17.7727 21.8511C17.332 22.2971 16.7445 22.5944 16.1569 22.743C15.5694 22.8917 14.9818 23.0403 14.3943 23.189V24.6755H11.4566V23.189C10.5753 23.0403 9.84085 22.8917 9.25331 22.5944C8.66577 22.2971 8.07823 21.9998 7.78446 21.4052C7.3438 20.9592 7.05003 20.3647 6.90315 19.7701C6.75626 19.1755 6.60938 18.4322 6.60938 17.689V11.4457C6.60938 10.7025 6.75626 9.95925 7.05003 9.36465C7.3438 8.77006 7.63757 8.32411 8.22511 7.87817C8.66577 7.43222 9.25331 7.13492 9.84085 6.98628C10.4284 6.83763 11.0159 6.68898 11.6035 6.68898V5.64844H14.5412V6.68898C15.1287 6.68898 15.7163 6.83763 16.3038 6.98628C16.8913 7.28357 17.332 7.58087 17.9195 7.87817C18.3602 8.32411 18.8008 8.77006 18.9477 9.36465C19.2415 9.95925 19.3884 10.7025 19.3884 11.4457V18.2836ZM11.6035 8.91871C11.0159 9.06736 10.4284 9.36465 9.98774 9.66195C9.69397 9.95925 9.54708 10.5538 9.54708 11.2971V18.5809C9.54708 18.8782 9.54708 19.1755 9.69397 19.4728C9.84085 19.7701 9.98774 19.9187 10.1346 20.0674C10.2815 20.216 10.5753 20.3647 10.869 20.5133C11.1628 20.662 11.4566 20.662 11.6035 20.662V8.91871ZM16.7445 11.2971C16.7445 10.5538 16.5976 10.1079 16.1569 9.66195C15.7163 9.21601 15.2756 9.06736 14.6881 9.06736V20.8106C14.9818 20.8106 15.1287 20.662 15.4225 20.662C15.7163 20.5133 15.8631 20.3647 16.1569 20.216C16.3038 20.0674 16.5976 19.7701 16.5976 19.6214C16.7445 19.3241 16.7445 19.0268 16.7445 18.7295V11.2971Z" fill="#1B3968"/>
<path d="M34.078 19.7703C34.078 21.4054 33.6373 22.5946 32.9029 23.4865C32.1685 24.3784 30.9934 24.6757 29.3777 24.6757C27.7619 24.6757 26.5868 24.2297 25.8524 23.4865C25.118 22.7432 24.8242 21.5541 24.8242 19.9189V10.5541C24.8242 9.81081 24.9711 9.06757 25.118 8.47297C25.2649 7.87838 25.5586 7.28378 25.8524 6.83784C26.2931 6.39189 26.7337 6.09459 27.3213 5.7973C27.9088 5.64865 28.4964 5.5 29.3777 5.5C30.259 5.5 30.9934 5.64865 31.5809 5.7973C32.1685 6.09459 32.6091 6.39189 33.0498 6.83784C33.3436 7.28378 33.6373 7.87838 33.7842 8.47297C33.9311 9.06757 34.078 9.81081 34.078 10.5541V19.7703ZM30.9934 10.2568C30.9934 9.66216 30.8465 9.21622 30.6996 8.77027C30.4059 8.32432 30.1121 8.17568 29.3777 8.17568C29.0839 8.17568 28.7901 8.17568 28.4964 8.47297C28.3495 8.62162 28.0557 8.77027 27.9088 9.06757C27.7619 9.36486 27.7619 9.51351 27.615 9.81081C27.615 10.1081 27.615 10.4054 27.615 10.5541V20.0676C27.615 20.5135 27.7619 20.9595 28.0557 21.4054C28.3495 21.8514 28.7901 22 29.3777 22C29.9652 22 30.4059 21.8514 30.6996 21.4054C30.9934 20.9595 31.1403 20.5135 31.1403 19.9189L30.9934 10.2568Z" fill="#1B3968"/>
<path d="M45.9743 24.6755V16.3511H42.5959V24.6755H39.6582V5.64844H42.5959V13.5268H45.9743V5.64844H48.912V24.6755H45.9743Z" fill="#1B3968"/>
<path d="M55.8174 24.6755V28.243H53.3203V22.1484L54.4954 21.8511C55.0829 21.2565 55.3767 20.662 55.5236 19.9187C55.6705 19.1755 55.8174 18.2836 55.8174 17.0944L56.1111 5.64844H64.6305V21.8511H65.8056V28.243H63.3085V24.6755H55.8174ZM58.6082 17.0944C58.6082 18.1349 58.4613 19.1755 58.4613 19.9187C58.3144 20.662 58.1675 21.4052 57.8738 21.8511H61.9865V8.47276H58.7551L58.6082 17.0944Z" fill="#1B3968"/>
<path d="M83.725 5.5C84.4594 5.5 85.1938 5.64865 85.7814 5.7973C86.3689 5.94595 86.8096 6.39189 87.2502 6.68919C87.6909 7.13514 87.8378 7.58108 88.1315 8.02703C88.1315 8.62162 88.1315 9.21622 88.1315 9.81081L85.1938 10.5541C85.1938 9.81081 85.0469 9.36486 84.7532 8.91892C84.4594 8.47297 84.0187 8.32432 83.4312 8.32432C83.1374 8.32432 82.8437 8.32432 82.5499 8.47297C82.403 8.62162 82.1092 8.77027 82.1092 9.06757C81.9623 9.36486 81.9623 9.51351 81.8155 9.81081C81.8155 10.1081 81.8155 10.4054 81.8155 10.5541V20.2162C81.8155 20.3649 81.8155 20.6622 81.8155 20.8108C81.8155 21.1081 81.9623 21.2568 82.1092 21.4054C82.2561 21.5541 82.403 21.7027 82.5499 21.8514C82.6968 22 82.9905 22 83.2843 22C84.3125 22 84.9 21.2568 84.9 19.6216C85.3407 19.7703 85.9282 19.7703 86.3689 19.9189C86.8096 20.0676 87.3971 20.0676 87.8378 20.0676C87.8378 21.5541 87.3971 22.5946 86.6627 23.4865C85.9282 24.3784 84.7532 24.6757 83.2843 24.6757C81.6686 24.6757 80.4935 24.2297 79.7591 23.4865C79.0246 22.7432 78.584 21.5541 78.584 20.0676V10.7027C78.584 9.95946 78.584 9.36486 78.8778 8.62162C79.0246 8.02703 79.3184 7.43243 79.6122 6.98649C80.0528 6.54054 80.4935 6.09459 81.081 5.94595C82.1092 5.64865 82.8437 5.5 83.725 5.5Z" fill="#1B3968"/>
<path d="M102.232 19.7705C102.232 21.4056 101.792 22.5948 101.057 23.4867C100.323 24.3786 99.1477 24.6759 97.532 24.6759C95.9162 24.6759 94.7411 24.2299 94.0067 23.4867C93.2723 22.7435 92.9785 21.5543 92.9785 19.9191V10.5543C92.9785 9.81102 93.1254 9.06778 93.2723 8.47318C93.4192 7.87859 93.7129 7.28399 94.0067 6.83805C94.3005 6.3921 94.888 6.09481 95.4756 5.79751C96.0631 5.50021 96.7975 5.35156 97.532 5.35156C98.4133 5.35156 99.1477 5.50021 99.7352 5.64886C100.323 5.94616 100.763 6.24345 101.204 6.6894C101.498 7.13535 101.792 7.72994 101.939 8.32454C102.085 8.91913 102.232 9.66237 102.232 10.4056V19.7705ZM99.2946 10.257C99.2946 9.66237 99.1477 9.21643 99.0008 8.77048C98.707 8.32454 98.4133 8.17589 97.6788 8.17589C97.3851 8.17589 97.0913 8.17589 96.7975 8.47318C96.6507 8.62183 96.3569 8.77048 96.21 9.06778C96.0631 9.36508 96.0631 9.51372 95.9162 9.81102C95.9162 10.1083 95.9162 10.4056 95.9162 10.5543V20.0678C95.9162 20.5137 96.0631 20.9597 96.3569 21.4056C96.6506 21.8516 97.0913 22.0002 97.6788 22.0002C98.2664 22.0002 98.707 21.8516 99.0008 21.4056C99.2946 20.9597 99.4415 20.5137 99.4415 19.9191L99.2946 10.257Z" fill="#1B3968"/>
<path d="M109.136 24.6755V28.243H106.639V22.1484L107.814 21.8511C108.401 21.2565 108.695 20.662 108.842 19.9187C108.989 19.1755 109.136 18.2836 109.136 17.0944L109.429 5.64844H117.949V21.8511H119.124V28.243H116.627V24.6755H109.136ZM111.78 17.0944C111.78 18.1349 111.633 19.1755 111.633 19.9187C111.486 20.662 111.339 21.4052 111.045 21.8511H115.158V8.47276H112.073L111.78 17.0944Z" fill="#1B3968"/>
<path d="M123.971 24.6755V5.64844H132.49V8.32411H126.908V13.5268H131.756V16.3511H126.908V21.8511H132.49V24.6755H123.971Z" fill="#1B3968"/>
<path d="M143.948 12.7838L139.982 24.6757H137.191V5.6487H140.129V17.6892H140.276L144.242 5.6487H147.18V24.5271H144.242L143.948 12.7838ZM140.423 1.33789C140.423 1.48654 140.423 1.78384 140.57 1.93249C140.717 2.08113 140.864 2.37843 141.01 2.52708C141.157 2.67573 141.304 2.82438 141.598 2.97303C141.745 3.12167 142.039 3.12167 142.332 3.12167C142.626 3.12167 142.92 3.12167 143.067 2.97303C143.214 2.82438 143.507 2.67573 143.654 2.52708C143.801 2.37843 143.948 2.22978 143.948 1.93249C143.948 1.63519 143.948 1.48654 143.948 1.33789H146.151C146.151 1.63519 146.005 2.08113 145.858 2.52708C145.711 2.97303 145.417 3.41897 145.123 3.86492C144.829 4.16221 144.389 4.45951 143.948 4.75681C143.507 5.05411 142.92 5.05411 142.332 5.05411C141.598 5.05411 141.01 4.90546 140.57 4.75681C139.982 4.45951 139.542 4.16221 139.248 3.86492C138.954 3.56762 138.66 3.12167 138.513 2.67573C138.366 2.22978 138.22 1.78384 138.22 1.48654L140.423 1.33789Z" fill="#1B3968"/>
<path d="M157.021 5.5C157.755 5.5 158.49 5.64865 159.077 5.7973C159.665 5.94595 160.106 6.39189 160.546 6.68919C160.987 7.13514 161.134 7.58108 161.428 8.02703C161.574 8.62162 161.721 9.06757 161.721 9.81081L158.784 10.5541C158.784 9.81081 158.637 9.36486 158.343 8.91892C158.049 8.47297 157.609 8.32432 157.021 8.32432C156.727 8.32432 156.434 8.32432 156.14 8.47297C155.993 8.62162 155.699 8.77027 155.699 9.06757C155.552 9.36486 155.552 9.51351 155.405 9.81081C155.405 10.1081 155.405 10.4054 155.405 10.5541V20.2162C155.405 20.3649 155.405 20.6622 155.405 20.8108C155.405 21.1081 155.552 21.2568 155.699 21.4054C155.846 21.5541 155.993 21.7027 156.14 21.8514C156.287 22 156.58 22 156.874 22C157.902 22 158.49 21.2568 158.49 19.6216C158.931 19.7703 159.518 19.7703 159.959 19.9189C160.399 20.0676 160.987 20.0676 161.428 20.0676C161.428 21.5541 160.987 22.5946 160.253 23.4865C159.518 24.3784 158.343 24.6757 156.874 24.6757C155.258 24.6757 154.23 24.2297 153.349 23.4865C152.468 22.7432 152.174 21.5541 152.174 20.0676V10.7027C152.174 9.95946 152.174 9.36486 152.468 8.62162C152.614 8.02703 152.908 7.43243 153.202 6.98649C153.643 6.54054 154.083 6.09459 154.671 5.94595C155.405 5.64865 156.14 5.5 157.021 5.5Z" fill="#1B3968"/>
<path d="M171.268 8.32411V24.6755H168.331V8.32411H165.246V5.64844H174.353V8.32411H171.268Z" fill="#1B3968"/>
<path d="M185.664 14.716C186.545 15.0133 187.133 15.4592 187.426 16.2025C187.72 16.9457 187.867 17.8376 187.867 18.8782C187.867 20.8106 187.426 22.2971 186.545 23.189C185.664 24.0809 184.342 24.5268 182.579 24.5268H178.613V5.64844H182.726C184.342 5.64844 185.664 6.09438 186.398 6.98628C187.133 7.87817 187.573 9.21601 187.573 10.8511C187.573 11.743 187.426 12.4863 187.133 13.0809C186.986 13.6755 186.398 14.2701 185.664 14.716ZM184.929 10.8511C184.929 9.95925 184.782 9.36465 184.342 8.91871C184.048 8.47276 183.461 8.32411 182.579 8.32411H181.698V13.2295H182.726C183.46 13.2295 184.048 13.0809 184.342 12.6349C184.636 12.189 184.929 11.5944 184.929 10.8511ZM185.076 18.5809C185.076 17.689 184.929 17.0944 184.636 16.6484C184.342 16.2025 183.754 16.0538 182.873 16.0538H181.698V21.9998H182.873C183.314 21.9998 183.754 21.8511 184.048 21.7025C184.342 21.5538 184.489 21.2565 184.636 20.9592C184.782 20.662 184.929 20.3647 184.929 19.9187C185.076 19.4728 185.076 19.0268 185.076 18.5809Z" fill="#1B3968"/>
<path d="M200.057 12.7836L196.092 24.6755H193.301V5.64844H196.092V17.689H196.238L200.204 5.64844H203.142V24.6755H200.204V12.7836H200.057Z" fill="#1B3968"/>
<path d="M207.99 24.6755L209.018 18.7295C209.165 18.1349 209.312 17.5403 209.606 16.9457C209.9 16.3511 210.194 16.0538 210.781 15.7565C209.9 15.4592 209.312 14.8647 209.018 14.1214C208.725 13.3782 208.578 12.4863 208.578 11.4457C208.578 9.5133 209.018 8.17547 209.9 7.13492C210.781 6.24303 212.103 5.64844 213.572 5.64844H217.978V24.5268H215.041V16.4998H214.306C213.719 16.4998 213.278 16.6484 212.837 17.0944C212.397 17.5403 212.103 18.1349 211.956 19.3241L211.075 24.6755H207.99ZM213.866 8.32411C212.984 8.32411 212.397 8.62141 211.956 9.06736C211.515 9.5133 211.369 10.2565 211.369 11.1484C211.369 12.0403 211.662 12.7836 212.103 13.0809C212.544 13.3782 213.131 13.6755 213.866 13.6755H215.041V8.32411H213.866Z" fill="#1B3968"/>
<path d="M15.5697 40.4324L10.5756 55.1486H7.19727V31.6621H10.7225V46.527H10.8694L15.7166 31.6621H19.2419V55.1486H15.7166V40.4324H15.5697Z" fill="#1B3968"/>
<path d="M37.1619 55.1486V44.8918H33.0491V55.1486H29.377V31.6621H33.0491V41.4729H37.1619V31.6621H40.834V55.1486H37.1619Z" fill="#1B3968"/>
<path d="M58.9002 55.1486V44.8918H54.6405V55.1486H51.1152V31.6621H54.6405V41.4729H58.9002V31.6621H62.5723V55.1486H58.9002Z" fill="#1B3968"/>
<path d="M84.0191 49.0542C84.0191 51.1353 83.5785 52.6218 82.6972 53.6623C81.8159 54.7029 80.347 55.2975 78.2906 55.2975C76.2342 55.2975 74.9123 54.8515 74.031 53.811C73.1496 52.7704 72.709 51.4326 72.709 49.5002V37.6083C72.709 36.7164 72.8559 35.8245 73.0028 35.0812C73.1496 34.338 73.5903 33.5948 74.031 33.1488C74.4716 32.5542 75.0591 32.1083 75.7936 31.9596C76.528 31.6623 77.4093 31.5137 78.4375 31.5137C79.4657 31.5137 80.4939 31.6623 81.0814 31.9596C81.8159 32.2569 82.4034 32.7029 82.8441 33.1488C83.2847 33.7434 83.5785 34.338 83.8723 35.0812C84.0191 35.8245 84.166 36.7164 84.166 37.7569L84.0191 49.0542ZM80.347 37.311C80.347 36.7164 80.2001 36.1218 79.9064 35.5272C79.6126 34.9326 79.025 34.7839 78.2906 34.7839C77.85 34.7839 77.5562 34.9326 77.2624 35.0812C76.9687 35.2299 76.8218 35.5272 76.6749 35.8245C76.528 36.1218 76.3811 36.4191 76.3811 36.7164C76.3811 37.0137 76.2342 37.311 76.2342 37.7569V49.6488C76.2342 50.2434 76.3811 50.838 76.6749 51.2839C76.9687 51.7299 77.5562 52.0272 78.2906 52.0272C79.025 52.0272 79.6126 51.7299 79.9064 51.2839C80.2001 50.6893 80.347 50.0948 80.347 49.5002V37.311Z" fill="#1B3968"/>
<path d="M102.525 42.811C103.553 43.1083 104.288 43.8515 104.728 44.7434C105.169 45.6353 105.316 46.8245 105.316 48.0137C105.316 50.5407 104.728 52.3245 103.7 53.365C102.672 54.5542 101.056 55.1488 98.8531 55.1488H94.0059V31.5137H99.1468C101.203 31.5137 102.672 32.1083 103.7 33.1488C104.728 34.1893 105.169 35.8245 105.169 37.9056C105.169 38.9461 105.022 39.9866 104.582 40.7299C104.141 41.4731 103.553 42.2164 102.672 42.5137L102.525 42.811ZM101.497 38.0542C101.497 37.0137 101.35 36.1218 100.909 35.6758C100.469 35.2299 99.7344 34.9326 98.7062 34.9326H97.5311V41.0272H98.7062C99.7344 41.0272 100.322 40.7299 100.763 40.2839C101.35 39.6893 101.497 38.9461 101.497 38.0542ZM101.791 47.7164C101.791 46.6758 101.644 45.7839 101.203 45.1893C100.763 44.5948 100.028 44.4461 99 44.4461H97.678V51.7299H99.1468C99.7344 51.7299 100.175 51.5812 100.616 51.4326C100.909 51.2839 101.203 50.838 101.497 50.5407C101.644 50.2434 101.791 49.7975 101.938 49.3515C101.791 48.7569 101.791 48.1623 101.791 47.7164Z" fill="#1B3968"/>
<path d="M123.677 55.1486L122.796 50.2432H118.536C118.389 50.9864 118.242 51.8783 118.095 52.6216C117.948 53.5135 117.801 54.2567 117.655 55.1486H113.982C114.717 51.1351 115.598 47.2702 116.333 43.4054C117.067 39.5405 117.948 35.527 118.683 31.6621H122.796L127.643 55.1486H123.677ZM120.445 37.0135C120.152 38.6486 120.005 40.2837 119.711 41.9189C119.417 43.554 119.123 45.1891 118.83 46.8243H122.061L120.445 37.0135Z" fill="#1B3968"/>
<path d="M147.619 31.6621V51.7297H149.088V59.6081H146.003V55.1486H136.162V31.6621H139.834V51.7297H143.947V31.6621H147.619Z" fill="#1B3968"/>
<path d="M166.273 40.4324L161.426 55.1486H157.754V31.6621H161.426V46.527H161.573L166.42 31.6621H169.945V55.1486H166.42V40.4324H166.273Z" fill="#1B3968"/>
<path d="M179.199 55.1488L180.521 47.7164C180.668 46.9731 180.962 46.2299 181.256 45.4866C181.549 44.892 182.137 44.2975 182.724 44.0002C181.696 43.5542 180.962 42.811 180.521 41.9191C180.081 41.0272 179.934 39.838 179.934 38.6488C179.934 36.2704 180.521 34.6353 181.549 33.2975C182.724 32.1083 184.193 31.5137 186.103 31.5137H191.538V55.0002H187.865V44.892H186.837C186.25 44.892 185.662 45.1893 185.075 45.6353C184.487 46.0812 184.193 46.9731 183.9 48.311L182.724 55.0002L179.199 55.1488ZM186.397 35.0812C185.368 35.0812 184.487 35.3785 184.046 36.1218C183.606 36.7164 183.459 37.6083 183.459 38.7975C183.459 39.9866 183.753 40.7299 184.34 41.1758C184.928 41.6218 185.662 41.7704 186.543 41.7704H188.012V35.0812C187.865 35.0812 186.397 35.0812 186.397 35.0812Z" fill="#1B3968"/>
<path d="M208.431 49.9459L206.815 45.6351L205.346 41.4729H205.199V55.1486H201.527V31.6621H205.053L207.55 38.3513L209.459 43.4054H209.606L211.516 38.2027L214.013 31.6621H217.538V55.1486H213.866V41.6216L212.25 45.7837L210.634 49.9459H208.431Z" fill="#1B3968"/>
<path d="M215.481 67.0404C216.216 66.5945 216.95 65.9999 217.685 65.5539H217.832C213.719 67.4864 209.606 69.1215 205.64 70.7566C180.376 80.7161 156.727 84.8782 136.017 85.0269C106.933 85.1755 84.0192 77.2972 71.8277 65.4053H49.7949C82.8441 97.0674 159.959 104.351 215.481 67.0404Z" fill="white"/>
<path d="M28.055 65.4055H7.19727C35.1055 95.2839 75.0583 106.581 108.548 108.068C112.073 108.216 115.452 108.216 118.683 108.216C140.422 107.919 164.658 103.162 185.663 91.7163C197.707 85.1758 208.724 76.5541 217.684 65.2568C166.862 115.797 65.0701 107.027 28.055 65.4055Z" fill="#E22A2A"/>
<path d="M217.684 65.4053C216.802 65.9999 216.068 66.5945 215.333 67.0404C159.958 104.351 82.8429 97.0674 49.7937 65.4053H28.0547C65.0698 107.027 166.861 115.797 217.684 65.4053Z" fill="#339FD9"/>
<path d="M218.271 65.2567C218.271 65.1081 218.124 64.9594 217.978 64.9594C217.978 64.9594 217.831 64.8108 217.684 64.8108H217.537H217.39H217.243C213.13 66.5945 209.164 68.3783 205.052 70.0135C181.697 79.081 157.755 83.9864 135.722 84.1351H134.547C107.52 84.1351 84.8995 77.1486 72.4143 64.9594L72.2674 64.8108L72.1205 64.6621H71.9736H7.3441C7.3441 64.6621 7.19721 64.6621 7.05033 64.8108L6.75656 64.9594C6.60967 65.1081 6.46278 65.2567 6.60967 65.4054V65.7027C6.60967 65.7027 6.60967 65.8513 6.75656 65.9999C19.6825 79.8243 36.1336 90.527 55.5225 97.9594C71.6798 104.203 90.0405 107.77 108.401 108.662C110.898 108.811 113.542 108.811 116.186 108.811C117.067 108.811 117.802 108.811 118.683 108.811C130.14 108.662 141.597 107.324 152.614 104.649C164.658 101.824 175.821 97.6621 185.957 92.3108C198.882 85.3243 209.605 76.554 218.124 65.8513V65.7027V65.554V65.4054C218.271 65.554 218.271 65.4054 218.271 65.2567ZM215.921 66.7432C207.696 76.554 197.414 84.8783 185.369 91.2702C166.421 101.378 142.772 107.176 118.683 107.622C115.305 107.622 111.926 107.622 108.548 107.473C84.8995 106.432 40.5402 99.5945 8.37229 65.9999H71.6798C84.4588 78.3378 107.373 85.3243 134.547 85.3243C134.987 85.3243 135.281 85.3243 135.722 85.3243C157.901 85.1756 181.991 80.2702 205.345 71.054C209.018 69.8648 212.543 68.3783 215.921 66.7432Z" fill="#E1F1F9"/>
</svg>
