<svg width="112" height="28" viewBox="0 0 112 28" fill="none" xmlns="http://www.w3.org/2000/svg">
<path d="M45.5866 28C44.1982 28 42.961 27.8168 41.8749 27.4503C40.7888 27.0731 39.8539 26.6151 39.0701 26.0762C38.2863 25.5373 37.6425 25.0092 37.1386 24.4919C36.6348 23.9638 36.2653 23.5489 36.0301 23.2471L37.8944 20.6928C38.1519 20.9946 38.499 21.3826 38.9357 21.8568C39.3724 22.331 39.9098 22.8052 40.5481 23.2794C41.1863 23.7537 41.9309 24.1524 42.7818 24.4758C43.6328 24.7991 44.5957 24.9607 45.6706 24.9607C46.6895 24.9607 47.6133 24.7883 48.4418 24.4434C49.2704 24.0985 49.931 23.5866 50.4237 22.9076C50.9276 22.2286 51.1795 21.388 51.1795 20.3857C51.1795 19.5343 51.0003 18.8122 50.642 18.2194C50.2837 17.6159 49.7855 17.0985 49.1473 16.6674C48.509 16.2363 47.7644 15.843 46.9135 15.4873C46.0625 15.1209 45.1444 14.7544 44.159 14.388C43.4648 14.1186 42.7594 13.806 42.0428 13.4503C41.3262 13.0839 40.6656 12.642 40.061 12.1247C39.4564 11.5966 38.9693 10.9715 38.5998 10.2494C38.2303 9.52733 38.0456 8.6759 38.0456 7.69515C38.0456 6.70362 38.2415 5.76597 38.6334 4.88222C39.0253 3.99846 39.5795 3.21709 40.2961 2.5381C41.0127 1.84834 41.8637 1.30947 42.849 0.921476C43.8455 0.522708 44.9484 0.323325 46.1577 0.323325C47.2326 0.323325 48.2459 0.484987 49.1976 0.808313C50.1606 1.13164 51.0171 1.54657 51.7673 2.05312C52.5175 2.54888 53.1165 3.07159 53.5644 3.62125L51.9689 6.03002C51.5994 5.56659 51.1291 5.1301 50.5581 4.72055C49.987 4.30023 49.332 3.96074 48.593 3.70208C47.854 3.44342 47.059 3.31409 46.2081 3.31409C45.1668 3.31409 44.2822 3.52425 43.5544 3.94457C42.8378 4.35412 42.2892 4.8876 41.9085 5.54503C41.5278 6.20246 41.3374 6.903 41.3374 7.64665C41.3374 8.31486 41.4774 8.88068 41.7573 9.34411C42.0484 9.80754 42.4347 10.2009 42.9162 10.5242C43.3977 10.8476 43.9407 11.1332 44.5453 11.3811C45.15 11.6289 45.7714 11.8661 46.4096 12.0924C47.5517 12.5235 48.6322 12.9707 49.6511 13.4342C50.67 13.8868 51.5658 14.4203 52.3384 15.0346C53.1109 15.6382 53.7156 16.3657 54.1523 17.2171C54.6001 18.0685 54.8241 19.0978 54.8241 20.3048C54.8241 21.9323 54.421 23.3226 53.6148 24.4758C52.8198 25.6182 51.7281 26.4911 50.3397 27.0947C48.9513 27.6982 47.3669 28 45.5866 28Z" fill="#273777"/>
<path d="M57.4817 27.4827V0.808313H60.8911V24.5889H72.0264V27.4827H57.4817Z" fill="#273777"/>
<path d="M73.7888 27.4827V0.808313H88.1824V3.70208H77.1983V12.6744H87.7793V15.552H77.1983V24.5889H88.1824V27.4827H73.7888Z" fill="#273777"/>
<path d="M91.3754 27.4827V0.808313H98.0263C99.997 0.808313 101.828 1.1478 103.518 1.82679C105.209 2.50577 106.687 3.4542 107.952 4.67206C109.229 5.87914 110.22 7.29638 110.925 8.92379C111.642 10.5404 112 12.2864 112 14.1617C112 16.037 111.647 17.7829 110.942 19.3995C110.236 21.0162 109.246 22.4334 107.969 23.6513C106.704 24.8584 105.22 25.8014 103.518 26.4804C101.828 27.1486 99.997 27.4827 98.0263 27.4827H91.3754ZM94.7848 24.5404H97.6904C99.202 24.5404 100.607 24.2818 101.906 23.7644C103.205 23.2363 104.336 22.5035 105.299 21.5658C106.273 20.6174 107.029 19.5127 107.566 18.2517C108.103 16.9908 108.372 15.622 108.372 14.1455C108.372 12.669 108.103 11.3002 107.566 10.0393C107.029 8.77829 106.273 7.67898 105.299 6.74134C104.336 5.80369 103.205 5.07082 101.906 4.54272C100.607 4.01463 99.202 3.75058 97.6904 3.75058H94.7848V24.5404Z" fill="#273777"/>
<path d="M17.5159 6.22853C24.8736 7.01365 21.0962 19.0857 18.7813 20.2829C18.2962 20.1014 16.6433 19.7402 15.2425 19.6192C14.2263 19.5314 13.3272 19.3807 12.9679 19.3323C12.879 18.5307 12.8765 17.7286 12.7078 16.849C12.5391 15.9694 11.6092 15.5711 11.5007 14.5724C10.9033 9.07437 14.8172 5.94056 17.5159 6.22853Z" fill="#273777"/>
<path d="M12.3926 21.1456L18.2712 22.2722C17.9825 26.1957 14.7955 28.4449 12.1698 27.0838C9.68358 25.795 10.8371 22.7943 12.3926 21.1456Z" fill="#273777"/>
<path d="M4.6625 0.00435541C-2.72935 0.391534 0.339608 12.6483 2.58123 13.9684C3.0761 13.8134 4.74746 13.5418 6.15307 13.4965C7.17283 13.4637 8.07926 13.3617 8.44076 13.3328C8.57619 12.5372 8.62541 11.7365 8.84501 10.8674C9.0646 9.99826 10.0162 9.65077 10.1827 8.65945C11.099 3.20226 7.37366 -0.137652 4.6625 0.00435541Z" fill="#273777"/>
<path d="M8.90411 14.9992L2.96913 15.807C3.02914 19.7399 6.0802 22.1574 8.78103 20.94C11.3383 19.7873 10.3612 16.7292 8.90411 14.9992Z" fill="#273777"/>
</svg>
