<svg width="204" height="896" viewBox="0 0 204 896" fill="none" xmlns="http://www.w3.org/2000/svg">
<path d="M111.071 878.929C104.771 885.229 94 880.767 94 871.858L94 796C94 790.477 98.4772 786 104 786L179.858 786C188.767 786 193.229 796.771 186.929 803.071L149 841L111.071 878.929Z" fill="#273777"/>
<path d="M-41 816C-41 799.431 -27.5685 786 -11 786L69 786L69 866C69 882.569 55.5686 896 39 896L-41 896L-41 816Z" fill="#C8D3FF"/>
<rect x="94" y="655" width="110" height="110" rx="55" fill="#C8D3FF"/>
<path d="M-41 685C-41 668.431 -27.5685 655 -11 655L39 655C55.5685 655 69 668.431 69 685L69 765L-41 765L-41 685Z" fill="black"/>
<rect x="204" y="634" width="110" height="110" rx="30" transform="rotate(180 204 634)" fill="#C8D3FF"/>
<rect x="69" y="634" width="110" height="110" rx="55" transform="rotate(180 69 634)" fill="white"/>
<rect x="204" y="503" width="110" height="110" rx="5" transform="rotate(180 204 503)" fill="#273777"/>
<path d="M69 503L-11 503C-27.5685 503 -41 489.569 -41 473L-41 393L39 393C55.5685 393 69 406.431 69 423L69 503Z" fill="#C8D3FF"/>
<path d="M186.929 354.929C193.229 361.229 188.767 372 179.858 372L104 372C98.4771 372 94 367.523 94 362L94 286.142C94 277.233 104.771 272.771 111.071 279.071L149 317L186.929 354.929Z" fill="black"/>
<rect x="69" y="372" width="110" height="110" rx="30" transform="rotate(180 69 372)" fill="#273777"/>
<path d="M204 241L124 241C107.431 241 94 227.569 94 211L94 131L174 131C190.569 131 204 144.431 204 161L204 241Z" fill="#C8D3FF"/>
<rect x="69" y="241" width="110" height="110" rx="5" transform="rotate(180 69 241)" fill="white"/>
<rect x="204" y="110" width="110" height="110" rx="5" transform="rotate(180 204 110)" fill="white"/>
<path d="M-23.9289 92.9289C-30.2286 99.2286 -41 94.7669 -41 85.8579L-41 10C-41 4.47715 -36.5229 -1.95703e-07 -31 -4.37114e-07L44.8579 -3.75297e-06C53.7669 -4.14239e-06 58.2286 10.7714 51.9289 17.0711L14 55L-23.9289 92.9289Z" fill="#273777"/>
</svg>
