<svg width="203" height="896" viewBox="0 0 203 896" fill="none" xmlns="http://www.w3.org/2000/svg">
<rect width="110" height="110" rx="55" fill="white"/>
<rect x="131" width="110" height="110" rx="30" fill="#273777"/>
<rect y="131" width="110" height="110" rx="5" fill="#273777"/>
<path d="M131 131H211C227.569 131 241 144.431 241 161V241H161C144.431 241 131 227.569 131 211V131Z" fill="white"/>
<path d="M17.0711 279.071C10.7714 272.771 15.2331 262 24.1421 262H100C105.523 262 110 266.477 110 272V347.858C110 356.767 99.2286 361.229 92.9289 354.929L55 317L17.0711 279.071Z" fill="#C8D3FF"/>
<rect x="131" y="262" width="110" height="110" rx="30" fill="#273777"/>
<path d="M0 393H80C96.5685 393 110 406.431 110 423V503H30C13.4315 503 0 489.569 0 473V393Z" fill="#273777"/>
<rect x="131" y="393" width="110" height="110" rx="5" fill="black"/>
<rect y="524" width="110" height="110" rx="5" fill="#C8D3FF"/>
<path d="M223.929 541.071C230.229 534.771 241 539.233 241 548.142L241 624C241 629.523 236.523 634 231 634L155.142 634C146.233 634 141.771 623.229 148.071 616.929L186 579L223.929 541.071Z" fill="#273777"/>
<rect y="655" width="110" height="110" rx="55" fill="black"/>
<path d="M131 685C131 668.431 144.431 655 161 655L211 655C227.569 655 241 668.431 241 685L241 765L131 765L131 685Z" fill="white"/>
<path d="M17.0711 803.071C10.7714 796.771 15.2331 786 24.1421 786H100C105.523 786 110 790.477 110 796V871.858C110 880.767 99.2286 885.229 92.9289 878.929L55 841L17.0711 803.071Z" fill="#273777"/>
<path d="M131 816C131 799.431 144.431 786 161 786L241 786L241 866C241 882.569 227.569 896 211 896L131 896L131 816Z" fill="#C8D3FF"/>
</svg>
