<svg width="55" height="71" viewBox="0 0 55 71" fill="none" xmlns="http://www.w3.org/2000/svg">
<path d="M54.125 62.1257V71.0007H0.875V62.1257C0.875 55.3926 5.31842 49.609 11.7528 47.8577L27.5 63.6049L43.2472 47.8577C49.6816 49.609 54.125 55.3896 54.125 62.1257ZM45.2441 27.0577C45.0133 36.6456 37.1442 44.3757 27.5 44.3757C17.8558 44.3757 9.98667 36.6456 9.75592 27.0577C12.9154 28.1227 18.8321 29.5841 27.5 29.5841C36.1679 29.5841 42.0846 28.1227 45.2441 27.0577ZM32.5232 0.619031C29.2247 -0.206344 25.7753 -0.206344 22.4767 0.619031L3.83333 5.91741V14.7924L9.75 17.7507V20.7091C9.75 20.7091 15.6667 23.6674 27.5 23.6674C39.3333 23.6674 45.25 20.7091 45.25 20.7091V17.7507L51.1667 14.7924V5.91741L32.5232 0.619031ZM33.4167 12.0264C33.4167 16.5023 29.1005 18.5879 27.7751 19.1175L27.5 19.2269L27.2367 19.0938C25.9114 18.4312 21.5833 15.9609 21.5833 12.0234V7.73382C21.5833 7.16878 21.9442 6.66882 22.4827 6.48837L27.5 4.82578L32.5173 6.48837C33.0557 6.66586 33.4167 7.16582 33.4167 7.73382V12.0264Z" fill="white"/>
</svg>
